<?xml version="1.0" encoding="utf-8"?>
<!-- Generator: Adobe Illustrator 16.0.0, SVG Export Plug-In . SVG Version: 6.00 Build 0)  -->
<!DOCTYPE svg PUBLIC "-//W3C//DTD SVG 1.1//EN" "http://www.w3.org/Graphics/SVG/1.1/DTD/svg11.dtd">
<svg version="1.1" id="Layer_1" xmlns="http://www.w3.org/2000/svg" xmlns:xlink="http://www.w3.org/1999/xlink" x="0px" y="0px"
	 width="273px" height="127px" viewBox="0 0 273 127" enable-background="new 0 0 273 127" xml:space="preserve">
<g>
	<path fill="#FFFFFF" d="M7.548,5.828C14.768,5.297,20.81,5.03,25.674,5.03c7.752,0,14.136,1.995,19.152,5.985
		c5.016,3.99,7.524,9.633,7.524,16.929c0,4.941-1.445,9.539-4.332,13.794c-2.89,4.257-6.119,7.638-9.69,10.146
		c2.811,3.876,6.288,8.493,10.431,13.851c4.142,5.358,6.82,8.721,8.037,10.089c4.635,4.941,9.879,7.752,15.732,8.436l-0.114,3.648
		c-4.637-0.077-8.398-0.78-11.286-2.109c-2.889-1.329-5.643-3.363-8.266-6.099c-2.621-2.736-9.139-11.247-19.551-25.536
		c-7.449,0-14.212-0.228-20.291-0.684v33.516H7.548V5.828 M30.006,49.604c3.344,0,6.915-2.203,10.716-6.612
		c3.8-4.407,5.7-9.519,5.7-15.333s-1.958-10.221-5.871-13.224c-3.915-3.001-9.103-4.503-15.561-4.503
		c-3.421,0-7.41,0.153-11.97,0.456v38.646C19.1,49.415,24.763,49.604,30.006,49.604z"/>
	<path fill="#FFFFFF" d="M112.313,88.136c-10.564,0-19.419-3.686-26.562-11.058c-7.145-7.371-10.715-16.396-10.715-27.075
		c0-10.677,3.57-19.702,10.715-27.075c7.144-7.371,15.998-11.058,26.562-11.058c10.562,0,19.418,3.687,26.562,11.058
		c7.143,7.373,10.715,16.398,10.715,27.075c0,10.679-3.572,19.705-10.715,27.075C131.731,84.45,122.876,88.136,112.313,88.136z
		 M112.37,16.543c-9.158,0-16.758,3.231-22.8,9.69c-6.042,6.461-9.063,14.384-9.063,23.769c0,9.387,3.021,17.291,9.063,23.712
		c6.042,6.423,13.642,9.633,22.8,9.633s16.738-3.21,22.744-9.633c6.002-6.422,9.006-14.325,9.006-23.712
		c0-9.385-3.004-17.308-9.006-23.769C129.108,19.775,121.528,16.543,112.37,16.543z"/>
	<path fill="#FFFFFF" d="M187.325,16.202c-4.104,0-7.449,0.989-10.032,2.964c-2.585,1.977-3.876,4.75-3.876,8.322
		c0,4.104,1.71,7.791,5.13,11.058c2.432,2.357,5.566,4.845,9.405,7.467c3.836,2.622,6.479,4.503,7.923,5.643
		c1.442,1.14,3.192,2.698,5.244,4.674c3.723,3.725,5.586,8.019,5.586,12.882c0,6.31-2.109,11.078-6.327,14.307
		c-4.218,3.231-10.108,4.845-17.67,4.845c-7.563,0-13.891-1.976-18.98-5.928l2.735-3.99c5.167,3.497,10.64,5.244,16.416,5.244
		c5.774,0,10.278-1.215,13.509-3.648c3.229-2.431,4.846-5.851,4.846-10.26c0-3.799-1.636-7.296-4.902-10.488
		c-2.28-2.28-5.34-4.749-9.178-7.41c-3.838-2.66-6.518-4.578-8.037-5.757c-1.521-1.177-3.305-2.754-5.357-4.731
		c-3.876-3.876-5.814-8.359-5.814-13.452c0-5.091,1.805-9.081,5.416-11.97c3.608-2.887,8.606-4.332,14.99-4.332
		c6.385,0,12.121,1.254,17.215,3.762l-1.938,4.218C198.913,17.342,193.481,16.202,187.325,16.202z"/>
	<path fill="#FFFFFF" d="M227.68,86.996V13.01h34.542v4.56h-29.299v26.904h26.449v4.446h-26.449v33.288h30.438v4.788H227.68z"/>
</g>
<g>
	<g>
		<path fill="#FFFFFF" d="M15.402,104.04c-1.092-0.463-2.176-0.696-3.252-0.696c-2.184,0-3.275,0.808-3.275,2.423
			c0,0.703,0.247,1.357,0.74,1.962c0.494,0.606,1.092,1.144,1.795,1.615c0.702,0.471,1.405,0.953,2.108,1.447
			c0.702,0.493,1.301,1.084,1.794,1.772c0.494,0.688,0.74,1.436,0.74,2.243c0,1.361-0.456,2.389-1.368,3.084
			s-2.172,1.043-3.779,1.043s-2.979-0.411-4.116-1.233l0.538-0.808c1.077,0.703,2.258,1.054,3.545,1.054
			c1.285,0,2.272-0.258,2.96-0.774c0.688-0.516,1.032-1.26,1.032-2.232c0-0.673-0.247-1.312-0.74-1.917
			c-0.493-0.606-1.092-1.151-1.794-1.638c-0.703-0.486-1.406-0.983-2.109-1.492c-0.702-0.508-1.301-1.114-1.794-1.817
			c-0.493-0.703-0.74-1.458-0.74-2.265c0-1.062,0.393-1.903,1.178-2.523s1.847-0.931,3.185-0.931c1.339,0,2.583,0.269,3.735,0.808
			L15.402,104.04z"/>
		<path fill="#FFFFFF" d="M21.817,102.626v16.038h-1.076v-16.038H21.817z M30.387,102.626l-6.819,7.761
			c0.912,1.092,1.963,2.311,3.151,3.656s1.959,2.176,2.311,2.49s0.628,0.549,0.83,0.707c0.201,0.157,0.512,0.329,0.931,0.516
			c0.418,0.187,0.867,0.31,1.346,0.37l-0.022,0.718c-0.897-0.015-1.638-0.154-2.221-0.415c-0.583-0.262-1.092-0.606-1.525-1.032
			c-0.434-0.426-1.379-1.473-2.837-3.141c-1.458-1.667-2.554-2.942-3.286-3.824l6.886-7.806H30.387z"/>
		<path fill="#FFFFFF" d="M34.648,118.664v-16.038h1.076v16.038H34.648z"/>
		<path fill="#FFFFFF" d="M42.678,105.183l0.045,1.907v11.574h-1.076v-16.172h0.493l10.565,12.18
			c0.718,0.853,1.271,1.533,1.659,2.041c-0.06-0.718-0.09-1.54-0.09-2.467v-11.619h1.077v16.173h-0.493l-10.767-12.404
			c-0.748-0.853-1.227-1.42-1.437-1.705L42.678,105.183z"/>
		<path fill="#FFFFFF" d="M76.929,118.933c-2.332,0-4.337-0.796-6.011-2.389c-1.675-1.593-2.513-3.559-2.513-5.899
			c0-2.34,0.732-4.307,2.198-5.899c1.466-1.593,3.343-2.389,5.63-2.389c1.795,0,3.611,0.299,5.451,0.897l-0.292,0.897
			c-1.794-0.538-3.514-0.808-5.159-0.808c-1.959,0-3.559,0.703-4.8,2.109s-1.861,3.125-1.861,5.159c0,2.034,0.721,3.765,2.164,5.193
			c1.443,1.428,3.174,2.142,5.192,2.142c1.765,0,3.29-0.269,4.576-0.808l0.337,0.763c-0.569,0.329-1.312,0.583-2.232,0.763
			S77.796,118.933,76.929,118.933z"/>
		<path fill="#FFFFFF" d="M86.911,113.101l-2.311,5.563h-1.144l6.751-16.15h0.628l6.774,16.15h-1.211l-2.311-5.563H86.911z
			 M90.455,104.309c-0.016,0.015-0.045,0.104-0.09,0.269c-0.21,0.643-0.411,1.189-0.605,1.637l-2.468,5.967h6.415l-2.467-5.944
			C90.717,105.101,90.455,104.458,90.455,104.309z"/>
		<path fill="#FFFFFF" d="M100.93,118.664v-15.971c1.42-0.104,2.609-0.157,3.566-0.157c1.525,0,2.781,0.393,3.769,1.177
			c0.986,0.785,1.48,1.896,1.48,3.331c0,0.972-0.284,1.877-0.853,2.714s-1.204,1.503-1.906,1.996
			c0.553,0.763,1.236,1.671,2.052,2.726s1.342,1.716,1.581,1.985c0.912,0.972,1.944,1.525,3.096,1.66l-0.022,0.718
			c-0.912-0.015-1.652-0.154-2.221-0.415c-0.568-0.262-1.11-0.662-1.626-1.2c-0.516-0.539-1.798-2.213-3.847-5.024
			c-1.466,0-2.797-0.045-3.993-0.135v6.595H100.93z M105.349,111.307c0.657,0,1.36-0.434,2.108-1.301
			c0.747-0.867,1.121-1.873,1.121-3.017c0-1.144-0.385-2.011-1.155-2.602c-0.77-0.591-1.791-0.886-3.062-0.886
			c-0.673,0-1.458,0.03-2.355,0.09v7.604C103.202,111.27,104.316,111.307,105.349,111.307z"/>
		<path fill="#FFFFFF" d="M115.688,118.664v-16.038h7.447v0.942h-6.371v5.899h5.765v0.92h-5.765v7.335h6.617v0.942H115.688z"/>
		<path fill="#FFFFFF" d="M142.694,104.04c-1.092-0.463-2.176-0.696-3.252-0.696c-2.184,0-3.275,0.808-3.275,2.423
			c0,0.703,0.247,1.357,0.74,1.962c0.494,0.606,1.092,1.144,1.795,1.615c0.702,0.471,1.405,0.953,2.108,1.447
			c0.702,0.493,1.301,1.084,1.794,1.772c0.494,0.688,0.74,1.436,0.74,2.243c0,1.361-0.456,2.389-1.368,3.084
			s-2.172,1.043-3.779,1.043s-2.979-0.411-4.116-1.233l0.538-0.808c1.077,0.703,2.258,1.054,3.545,1.054
			c1.285,0,2.272-0.258,2.96-0.774c0.688-0.516,1.032-1.26,1.032-2.232c0-0.673-0.247-1.312-0.74-1.917
			c-0.493-0.606-1.092-1.151-1.794-1.638c-0.703-0.486-1.406-0.983-2.109-1.492c-0.702-0.508-1.301-1.114-1.794-1.817
			c-0.493-0.703-0.74-1.458-0.74-2.265c0-1.062,0.393-1.903,1.178-2.523s1.847-0.931,3.185-0.931c1.339,0,2.583,0.269,3.735,0.808
			L142.694,104.04z"/>
		<path fill="#FFFFFF" d="M149.323,116.533c-1.488-1.6-2.232-3.566-2.232-5.899c0-2.333,0.744-4.295,2.232-5.888
			c1.487-1.593,3.368-2.389,5.641-2.389c2.273,0,4.157,0.796,5.652,2.389c1.495,1.592,2.243,3.555,2.243,5.888
			c0,2.333-0.748,4.299-2.243,5.899s-3.379,2.4-5.652,2.4C152.691,118.933,150.811,118.133,149.323,116.533z M150.119,105.441
			c-1.241,1.398-1.861,3.129-1.861,5.192c0,2.064,0.624,3.799,1.872,5.204c1.249,1.406,2.864,2.108,4.846,2.108
			s3.596-0.703,4.845-2.108c1.248-1.405,1.873-3.14,1.873-5.204c0-2.063-0.625-3.794-1.873-5.192
			c-1.249-1.398-2.867-2.098-4.856-2.098C152.976,103.344,151.36,104.043,150.119,105.441z"/>
		<path fill="#FFFFFF" d="M167.839,118.664v-16.038h1.076v15.051h7.38v0.987H167.839z"/>
		<path fill="#FFFFFF" d="M190.023,117.105c-1.032,1.219-2.602,1.828-4.711,1.828c-2.108,0-3.682-0.613-4.722-1.839
			c-1.039-1.226-1.559-2.901-1.559-5.024v-9.443h1.077v9.443c0,3.948,1.73,5.922,5.192,5.922s5.192-1.974,5.192-5.922v-9.443h1.077
			v9.443C191.571,114.208,191.055,115.887,190.023,117.105z"/>
		<path fill="#FFFFFF" d="M200.273,103.568h-5.429v-0.942h11.934v0.942h-5.429v15.096h-1.076V103.568z"/>
		<path fill="#FFFFFF" d="M210.232,118.664v-16.038h1.076v16.038H210.232z"/>
		<path fill="#FFFFFF" d="M218.521,116.533c-1.488-1.6-2.232-3.566-2.232-5.899c0-2.333,0.744-4.295,2.232-5.888
			c1.487-1.593,3.368-2.389,5.641-2.389c2.273,0,4.157,0.796,5.652,2.389c1.495,1.592,2.243,3.555,2.243,5.888
			c0,2.333-0.748,4.299-2.243,5.899s-3.379,2.4-5.652,2.4C221.889,118.933,220.008,118.133,218.521,116.533z M219.316,105.441
			c-1.241,1.398-1.861,3.129-1.861,5.192c0,2.064,0.624,3.799,1.872,5.204c1.249,1.406,2.864,2.108,4.846,2.108
			s3.596-0.703,4.845-2.108c1.248-1.405,1.873-3.14,1.873-5.204c0-2.063-0.625-3.794-1.873-5.192
			c-1.249-1.398-2.867-2.098-4.856-2.098C222.173,103.344,220.558,104.043,219.316,105.441z"/>
		<path fill="#FFFFFF" d="M238.068,105.183l0.045,1.907v11.574h-1.076v-16.172h0.493l10.565,12.18
			c0.718,0.853,1.271,1.533,1.659,2.041c-0.06-0.718-0.09-1.54-0.09-2.467v-11.619h1.077v16.173h-0.493l-10.767-12.404
			c-0.748-0.853-1.227-1.42-1.437-1.705L238.068,105.183z"/>
		<path fill="#FFFFFF" d="M263.595,104.04c-1.092-0.463-2.176-0.696-3.252-0.696c-2.184,0-3.275,0.808-3.275,2.423
			c0,0.703,0.247,1.357,0.74,1.962c0.494,0.606,1.092,1.144,1.795,1.615c0.702,0.471,1.405,0.953,2.108,1.447
			c0.702,0.493,1.301,1.084,1.794,1.772c0.494,0.688,0.74,1.436,0.74,2.243c0,1.361-0.456,2.389-1.368,3.084
			s-2.172,1.043-3.779,1.043s-2.979-0.411-4.116-1.233l0.538-0.808c1.077,0.703,2.258,1.054,3.545,1.054
			c1.285,0,2.272-0.258,2.96-0.774c0.688-0.516,1.032-1.26,1.032-2.232c0-0.673-0.247-1.312-0.74-1.917
			c-0.493-0.606-1.092-1.151-1.794-1.638c-0.703-0.486-1.406-0.983-2.109-1.492c-0.702-0.508-1.301-1.114-1.794-1.817
			c-0.493-0.703-0.74-1.458-0.74-2.265c0-1.062,0.393-1.903,1.178-2.523s1.847-0.931,3.185-0.931c1.339,0,2.583,0.269,3.735,0.808
			L263.595,104.04z"/>
	</g>
</g>
</svg>
